<svg xmlns="http://www.w3.org/2000/svg" width="48" height="48" viewBox="0 0 48 48">
    <path fill="#FFF" d="M23.824.003C10.668.003.004 10.668.004 23.824c0 13.156 10.664 23.821 23.82 23.821s23.821-10.665 23.821-23.82C47.645 10.667 36.98.002 23.825.002z"/>
    <path fill="#808285" d="M16.87 29.586v-11.29h5.794c1.138 0 2.017.052 2.69.208.673.103 1.293.362 1.81.621.829.466 1.45 1.14 1.915 1.968.466.88.673 1.864.673 3.004 0 1.087-.207 2.02-.621 2.848a4.063 4.063 0 01-1.863 1.864c-.517.31-1.086.466-1.707.621-.62.104-1.604.156-2.897.156h-5.795zm5.225-8.648h-2.328v5.955h2.328c1.655 0 2.845-.207 3.57-.673.724-.466 1.138-1.191 1.138-2.227 0-1.036-.414-1.76-1.19-2.279-.776-.57-1.966-.776-3.518-.776zm15.727 8.855c-2.12 0-3.725-.518-4.863-1.502-1.138-1.035-1.707-2.485-1.707-4.35 0-1.812.62-3.262 1.81-4.298s2.898-1.553 5.07-1.553c2.122 0 3.829.414 4.967 1.45.414.362.724.828.931 1.398.156.466.31.984.26 1.553h-3.105c-.052-.31-.103-.466-.362-.725-.259-.31-.88-.621-1.345-.725a7.661 7.661 0 00-1.604-.155c-1.086 0-1.914.155-2.535.725-.62.57-.88 1.45-.88 2.434 0 .984.31 1.812.88 2.33.569.518 1.449.673 2.587.673.62 0 1.19 0 1.707-.103.414-.104.828-.207 1.138-.466.362-.311.517-.673.57-1.243h3.103c0 1.398-.414 2.537-1.397 3.21-1.241.984-2.948 1.347-5.225 1.347zM6.678 18.297h7.656v2.64H6.057c-.104.57-.155 1.192-.207 1.761h8.07v2.383H5.799c.052.621.104 1.19.207 1.812h8.485v2.745H3.47a21.02 21.02 0 01-.776-5.697v-1.45c.103-1.398.31-2.796.673-4.143v-.207l3.31.156z"/>
    <path fill="#FEC315" d="M23.35 3.091c8.974 0 16.615 5.9 19.487 14.116-2.513-5.056-7.692-8.585-13.59-8.585-5.743 0-10.717 3.265-13.332 8.111H4.017C6.992 8.78 14.53 3.091 23.35 3.091"/>
    <path fill="#002A5C" d="M42.837 30.914c-2.974 7.976-10.513 13.643-19.333 13.643-8.974 0-16.615-5.877-19.487-14.116 2.564 5.09 7.744 8.554 13.641 8.554 5.744 0 10.77-3.254 13.333-8.081h11.846z"/>
</svg>