<svg width="24" height="24" viewBox="0 0 24 24" xmlns="http://www.w3.org/2000/svg">
    <path d="M15.724 1v4.966l-3.311-.001V7.62h3.311v1.864a6.62 6.62 0 1 1-4.08 9.722H2.483l-.001-3.31H0v-4.965h2.482V9.275H0V4.31h2.482V1h13.242zm1.655 9.931a4.966 4.966 0 1 0 0 9.931 4.966 4.966 0 0 0 0-9.931zm-6.62 4.966H4.138v1.655h6.83a6.633 6.633 0 0 1-.21-1.655zm0-3.31H1.655v1.654h9.104v-1.655zm3.31-3.311H4.138v1.655H13a6.64 6.64 0 0 1 1.068-.769l.001-.886zm-3.31-3.31H1.655V7.62h9.104V5.966zm3.31-3.31H4.138V4.31h9.931V2.655z" fill="currentColor" />
</svg>
